<svg width="55" height="55" viewBox="0 0 55 55" fill="none" xmlns="http://www.w3.org/2000/svg">
<path d="M54.1909 15.712H54.1871L50.798 17.6789L44.0275 21.605L40.6422 23.5719L37.2531 25.535L33.8679 27.5018H33.8641L23.7083 33.391L20.3192 35.3579L16.9339 37.321L13.5449 39.284L10.1596 41.2509L6.77434 43.214L3.38908 45.177L0 47.1401V39.284L3.38908 37.321L6.77434 35.3579L10.1596 33.3948L13.5449 31.428L16.9339 29.4649L20.3192 27.5018L23.7083 25.535L30.4788 21.6088L33.8679 19.642L37.2531 17.6789L40.6422 15.7158L44.0275 13.749L47.4165 11.7859L50.798 9.82285L54.1871 7.85596L54.1909 15.712Z" fill="white"/>
<path d="M50.7967 21.605V41.2509L47.4152 43.2139L44.0262 45.1808L40.6409 47.1439L37.2518 49.1069L33.8666 51.07L30.4775 53.0369L27.0922 54.9999L23.707 53.0369L20.3179 51.07L16.9326 49.1069L13.5474 47.1439L10.1621 45.177L16.9326 41.2509L20.3179 43.2139L23.707 45.1808L27.0922 47.1439L30.4775 45.1808L33.8666 43.2139L37.2518 41.2509L40.6409 39.284L44.0262 37.3209V25.5311L50.7967 21.605Z" fill="white"/>
<path d="M44.0271 9.81911L37.2527 13.7491L33.8675 11.786L30.4784 9.81911L27.0931 7.85605L23.7079 9.81911L20.3188 11.786L16.9335 13.7491L13.5445 15.7159L10.1592 17.679V29.4688L3.38867 33.3949V13.7491L6.77393 11.786L10.1592 9.82294L13.5483 7.85605L16.9335 5.893L20.3188 3.92994L23.7079 1.96305L27.0931 0L30.4784 1.96305L33.8675 3.92994L37.2527 5.893L40.6418 7.85605L44.0271 9.81911Z" fill="white"/>
</svg>
